<svg
   width="64"
   height="64"
   >

  <path
     d="m 64,12.15615 c -2.355602,1.046113 -4.885966,1.750086 -7.541864,2.067612 2.712511,-1.624553 4.792431,-4.196761 5.772086,-7.2637203 -2.535287,1.5039421 -5.346256,2.5968232 -8.339372,3.1875693 -2.394984,-2.5525168 -5.806546,-4.1475324 -9.5824,-4.1475324 -7.251414,0 -13.129342,5.8803894 -13.129342,13.1293414 0,1.028884 0.11815,2.033153 0.33968,2.990654 C 20.607207,21.573634 10.933733,16.345527 4.4552133,8.3999863 3.327872,10.339604 2.6805123,12.594287 2.6805123,15.00404 c 0,4.553671 2.3162186,8.573209 5.8385447,10.926349 -2.1513019,-0.06892 -4.1770702,-0.659667 -5.9468482,-1.641783 0,0.05661 0,0.108304 0,0.164917 0,6.362832 4.5241336,11.669705 10.5325182,12.873351 -1.100266,0.300296 -2.262067,0.46029 -3.4607902,0.46029 -0.8442752,0 -1.6688589,-0.08369 -2.4688282,-0.233837 1.6713204,5.215799 6.5203644,9.013807 12.2653744,9.119649 -4.492135,3.522326 -10.1534556,5.621938 -16.3070651,5.621938 -1.0584208,0 -2.1045344,-0.06154 -3.1334179,-0.184608 5.8114688,3.724164 12.710896,5.897619 20.127226,5.897619 24.151686,0 37.354871,-20.006615 37.354871,-37.357333 0,-0.568593 -0.01231,-1.134725 -0.03692,-1.698396 C 60.012461,17.098729 62.240068,14.787433 64,12.15615 Z"
     id="path1"
     style="stroke-width:2.46144" />
</svg>
