<svg
   width="64px"
   height="64px">
  <path
     d="M 19.368421,0 C 8.7012884,0 0,8.7012884 0,19.368421 V 44.631579 C 0,
     55.29728 8.7009853,64 19.368421,64 H 44.631579 C 55.297583,64 64,
     55.297583 64,44.631579 V 19.368421 C 64,8.7009853 55.29728,0 44.631579,
     0 Z m 0,5.0526316 h 25.263158 c 7.93472,0 14.315789,6.3794354 14.315789,
     14.3157894 v 25.263158 c 0,7.934417 -6.381372,14.315789 -14.315789,
     14.315789 H 19.368421 c -7.936354,0 -14.3157894,-6.381069 -14.3157894,
     -14.315789 V 19.368421 c 0,-7.936657 6.3791324,-14.3157894 14.3157894,
     -14.3157894 z m 29.473684,6.7368424 c -1.861052,0 -3.368421,1.507368 -3.368421,
     3.368421 0,1.861052 1.507369,3.368421 3.368421,3.368421 1.861053,0 3.368421,
     -1.507369 3.368421,-3.368421 0,-1.861053 -1.507368,-3.368421 -3.368421,
     -3.368421 z M 32,15.157895 c -9.271276,0 -16.842105,7.570829 -16.842105,
     16.842105 0,9.271276 7.570829,16.842105 16.842105,16.842105 9.271276,
     0 16.842105,-7.570829 16.842105,-16.842105 0,-9.271276 -7.570829,
     -16.842105 -16.842105,-16.842105 z m 0,5.052631 c 6.540093,0 11.789474,
     5.249381 11.789474,11.789474 0,6.540093 -5.249381,11.789474 -11.789474,
     11.789474 -6.540093,0 -11.789474,-5.249381 -11.789474,-11.789474 0,
     -6.540093 5.249381,-11.789474 11.789474,-11.789474 z"
     id="path1"
     style="stroke-width:1.68421" />
</svg>
