<svg width="64" height="64">
  <path
     fill="#0866ff"
     d="M 64,32 C 64,14.326444 49.673556,0 32,0 14.326444,0 0,14.326444 0,32 0,47.007937 10.331788,59.599214 24.269705,63.058232 V 41.778546 H 17.671041 V 32 h 6.598664 v -4.213438 c 0,-10.892574 4.92888,-15.940904 15.621533,-15.940904 2.028133,0 5.526129,0.398586 6.957013,0.795914 v 8.86444 c -0.755677,-0.07921 -2.067112,-0.11945 -3.69666,-0.11945 -5.246994,0 -7.275127,1.987898 -7.275127,7.155678 V 32 h 10.452495 l -1.795521,9.778546 H 35.876464 V 63.76613 C 51.721807,61.852417 64,48.360864 64,32 Z"
     id="path1"
     style="stroke-width:0.125737" />
  <path
     fill="#ffffff"
     d="M 44.533438,41.778546 46.328959,32 H 35.876464 v -3.45776 c 0,-5.16778 2.028133,-7.155678 7.275127,-7.155678 1.629548,0 2.940983,0.04024 3.69666,0.11945 v -8.86444 c -1.430884,-0.397328 -4.92888,-0.795914 -6.957013,-0.795914 -10.692653,0 -15.621533,5.049588 -15.621533,15.940904 V 32 h -6.598664 v 9.778546 h 6.598664 V 63.058232 C 26.745462,63.671827 29.334381,64 32,64 c 1.312692,0 2.605265,-0.08047 3.876464,-0.23387 V 41.778546 Z"
     id="path2"
     style="stroke-width:0.125737" />
</svg>
